<svg width="23" height="20" viewBox="0 0 23 20" fill="none" xmlns="http://www.w3.org/2000/svg">
<path d="M13.9964 13.1664L14.5274 12.5879L14.0318 12.1331L13.5064 12.5529L13.9964 13.1664ZM19.7867 18.4808L20.3177 17.9024L19.7867 18.4808ZM20.1857 18.847L19.6548 19.4255L20.2332 19.9564L20.7642 19.3779L20.1857 18.847ZM20.918 18.0491L21.4965 18.58L22.0274 18.0016L21.4489 17.4706L20.918 18.0491ZM20.5191 17.6829L19.9881 18.2614L19.9881 18.2614L20.5191 17.6829ZM14.7931 12.4276L14.2177 11.8933L13.6803 12.472L14.2622 13.006L14.7931 12.4276ZM9.05174 1.21092C5.06253 1.21092 1.79539 4.18402 1.79539 7.89096H3.36577C3.36577 5.17219 5.80381 2.7813 9.05174 2.7813V1.21092ZM16.3081 7.89096C16.3081 4.18402 13.041 1.21092 9.05174 1.21092V2.7813C12.2997 2.7813 14.7377 5.17219 14.7377 7.89096H16.3081ZM9.05174 14.571C13.041 14.571 16.3081 11.5979 16.3081 7.89096H14.7377C14.7377 10.6097 12.2997 13.0006 9.05174 13.0006V14.571ZM1.79539 7.89096C1.79539 11.5979 5.06253 14.571 9.05174 14.571V13.0006C5.80381 13.0006 3.36577 10.6097 3.36577 7.89096H1.79539ZM2.28275 7.89096C2.28275 4.49144 5.29176 1.69828 9.05174 1.69828V0.127895C4.55691 0.127895 0.712367 3.49738 0.712367 7.89096H2.28275ZM9.05174 14.0836C5.29176 14.0836 2.28275 11.2905 2.28275 7.89096H0.712367C0.712367 12.2845 4.55691 15.654 9.05174 15.654V14.0836ZM13.5064 12.5529C12.314 13.5055 10.7527 14.0836 9.05174 14.0836V15.654C11.1093 15.654 13.016 14.9546 14.4865 13.7799L13.5064 12.5529ZM20.3177 17.9024L14.5274 12.5879L13.4655 13.7449L19.2558 19.0593L20.3177 17.9024ZM20.7166 18.2685L20.3177 17.9024L19.2558 19.0593L19.6548 19.4255L20.7166 18.2685ZM20.3395 17.5182L19.6072 18.3161L20.7642 19.3779L21.4965 18.58L20.3395 17.5182ZM19.9881 18.2614L20.3871 18.6276L21.4489 17.4706L21.05 17.1045L19.9881 18.2614ZM14.2622 13.006L19.9881 18.2614L21.05 17.1045L15.324 11.8491L14.2622 13.006ZM15.8207 7.89096C15.8207 9.42063 15.2207 10.8132 14.2177 11.8933L15.3685 12.9618C16.62 11.6141 17.3911 9.84708 17.3911 7.89096H15.8207ZM9.05174 1.69828C12.8117 1.69828 15.8207 4.49144 15.8207 7.89096H17.3911C17.3911 3.49738 13.5466 0.127895 9.05174 0.127895V1.69828Z" fill="#5D5961"/>
</svg>